<mxfile host="app.diagrams.net" modified="2022-12-06T11:04:09.056Z" agent="5.0 (Windows)" etag="AlYDatAdRvZFc7kV_oaF" version="20.6.0" type="github">
  <diagram id="S2WDjPr_X6xaVNoehxzF" name="第 1 页">
    <mxGraphModel dx="2249" dy="570" grid="1" gridSize="10" guides="1" tooltips="1" connect="1" arrows="1" fold="1" page="1" pageScale="1" pageWidth="827" pageHeight="1169" math="0" shadow="0">
      <root>
        <mxCell id="0" />
        <mxCell id="1" parent="0" />
        <mxCell id="6PkzSWBtRR_NZO-rmZXb-1" value="" style="rounded=0;whiteSpace=wrap;html=1;" parent="1" vertex="1">
          <mxGeometry x="140" y="200" width="120" height="60" as="geometry" />
        </mxCell>
        <mxCell id="6PkzSWBtRR_NZO-rmZXb-2" value="" style="ellipse;shape=cloud;whiteSpace=wrap;html=1;" parent="1" vertex="1">
          <mxGeometry x="110" y="370" width="120" height="80" as="geometry" />
        </mxCell>
        <mxCell id="6PkzSWBtRR_NZO-rmZXb-3" value="" style="shape=cylinder3;whiteSpace=wrap;html=1;boundedLbl=1;backgroundOutline=1;size=15;" parent="1" vertex="1">
          <mxGeometry x="430" y="310" width="60" height="80" as="geometry" />
        </mxCell>
        <mxCell id="0jL3aBs8mBDXgnbIQAlL-1" value="" style="shape=image;html=1;verticalLabelPosition=bottom;verticalAlign=top;imageAspect=1;aspect=fixed;image=img/clipart/Gear_128x128.png;rotation=-195;" vertex="1" parent="1">
          <mxGeometry x="-139.03" y="320.87" width="51.15" height="60" as="geometry" />
        </mxCell>
      </root>
    </mxGraphModel>
  </diagram>
</mxfile>
